<?xml version="1.0" encoding="UTF-8" standalone="no"?>
<!-- Created with Inkscape (http://www.inkscape.org/) -->

<svg
   width="210mm"
   height="297mm"
   viewBox="0 0 210 297"
   version="1.1"
   id="svg1"
   inkscape:version="1.3.2 (091e20e, 2023-11-25, custom)"
   sodipodi:docname="Idea Generation Vector.svg"
   xmlns:inkscape="http://www.inkscape.org/namespaces/inkscape"
   xmlns:sodipodi="http://sodipodi.sourceforge.net/DTD/sodipodi-0.dtd"
   xmlns="http://www.w3.org/2000/svg"
   xmlns:svg="http://www.w3.org/2000/svg">
  <sodipodi:namedview
     id="namedview1"
     pagecolor="#ffffff"
     bordercolor="#000000"
     borderopacity="0.25"
     inkscape:showpageshadow="2"
     inkscape:pageopacity="0.0"
     inkscape:pagecheckerboard="0"
     inkscape:deskcolor="#d1d1d1"
     inkscape:document-units="mm"
     inkscape:zoom="1"
     inkscape:cx="473.5"
     inkscape:cy="461.5"
     inkscape:window-width="1920"
     inkscape:window-height="1009"
     inkscape:window-x="-8"
     inkscape:window-y="-8"
     inkscape:window-maximized="1"
     inkscape:current-layer="layer1" />
  <defs
     id="defs1" />
  <g
     inkscape:label="Layer 1"
     inkscape:groupmode="layer"
     id="layer1">
    <ellipse
       style="fill:#ff0000;fill-opacity:1;stroke-width:0.264583"
       id="path40"
       cx="87.839134"
       cy="139.32283"
       rx="24.84133"
       ry="2.1918819" />
    <ellipse
       style="fill:#c8b7b7;fill-opacity:1;stroke-width:0.264583"
       id="path15-1"
       cx="87.382393"
       cy="131.45631"
       rx="25.20664"
       ry="9.1328411" />
    <rect
       style="fill:#c8b7b7;fill-opacity:1;stroke-width:0.264583"
       id="rect16"
       width="50.04797"
       height="47.490772"
       x="62.468636"
       y="84.022141" />
    <ellipse
       style="fill:#552200;fill-opacity:1;stroke-width:0.264583"
       id="path15"
       cx="87.309959"
       cy="84.752762"
       rx="25.20664"
       ry="9.1328411" />
    <path
       style="fill:#000000;fill-opacity:1;stroke-width:0.264583"
       id="path18"
       sodipodi:type="arc"
       sodipodi:cx="115.98708"
       sodipodi:cy="111.78597"
       sodipodi:rx="0.18265682"
       sodipodi:ry="2.1918819"
       sodipodi:start="0"
       sodipodi:end="4.2564846"
       sodipodi:arc-type="slice"
       d="m 116.16974,111.78597 a 0.18265682,2.1918819 0 0 1 -0.15501,2.16662 0.18265682,2.1918819 0 0 1 -0.20193,-1.51063 0.18265682,2.1918819 0 0 1 0.0939,-2.624 l 0.0804,1.96801 z" />
    <path
       style="fill:#c8b7b7;fill-opacity:1;stroke-width:0.264583"
       id="path19"
       sodipodi:type="arc"
       sodipodi:cx="63.199257"
       sodipodi:cy="109.41143"
       sodipodi:rx="15"
       sodipodi:ry="15"
       sodipodi:start="1.575535"
       sodipodi:end="4.739101"
       sodipodi:arc-type="slice"
       d="M 63.128177,124.41126 A 15,15 0 0 1 50.11935,116.75418 15,15 0 0 1 50.356715,101.661 15,15 0 0 1 63.59989,94.416782 l -0.400633,14.994648 z" />
    <path
       style="fill:#c8b7b7;fill-opacity:1;stroke-width:0.264583"
       id="path22"
       sodipodi:type="arc"
       sodipodi:cx="51.691883"
       sodipodi:cy="103.56641"
       sodipodi:rx="2.0092251"
       sodipodi:ry="0.18265682"
       sodipodi:start="1.575535"
       sodipodi:end="4.739101"
       sodipodi:arc-type="slice"
       d="m 51.682362,103.74906 a 2.0092251,0.18265682 0 0 1 -1.742511,-0.0932 2.0092251,0.18265682 0 0 1 0.0318,-0.18379 2.0092251,0.18265682 0 0 1 1.773901,-0.0882 l -0.05366,0.1826 z" />
    <path
       style="fill:#ffffff;fill-opacity:1;stroke-width:0.264583"
       id="path23"
       sodipodi:type="arc"
       sodipodi:cx="63.564575"
       sodipodi:cy="108.3155"
       sodipodi:rx="7.5"
       sodipodi:ry="7.5"
       sodipodi:start="1.7724672"
       sodipodi:end="4.5240202"
       sodipodi:arc-type="slice"
       d="m 62.062276,115.6635 a 7.5,7.5 0 0 1 -5.997535,-7.39788 7.5,7.5 0 0 1 6.095408,-7.31745 l 1.404426,7.36733 z" />
    <path
       style="fill:#ffffff;fill-opacity:1;stroke-width:0.264583"
       id="path24"
       d="m 72.235546,155.78486 c -0.217244,-1.40524 -0.228296,-2.82954 -0.349057,-4.24356 -0.134223,-1.49979 -0.323749,-2.99277 -0.491077,-4.48892 -0.07392,-0.68159 -0.11969,-1.36555 -0.162653,-2.0496 0,0 -3.508155,-1.75806 -3.508155,-1.75806 v 0 c 0.04915,0.69234 0.101753,1.38445 0.176281,2.07464 0.158679,1.49417 0.344779,2.98423 0.487871,4.47998 0.138988,1.40795 0.146801,2.82582 0.29937,4.23324 z" />
    <path
       style="fill:#ffffff;fill-opacity:1;stroke-width:0.264583"
       id="path25"
       d="m 71.170024,151.74355 c -0.0702,-1.79223 -0.07286,-3.57395 0.168574,-5.35208 0.161729,-1.09898 0.08244,-0.56207 0.237802,-1.61076 0,0 -3.453413,-1.8214 -3.453413,-1.8214 v 0 c -0.143169,1.05403 -0.06792,0.5143 -0.22633,1.61912 -0.07136,0.51913 -0.191016,1.30941 -0.216818,1.82955 -0.05842,1.17766 0.05023,2.36358 -0.03068,3.54161 z" />
    <path
       style="fill:#ffffff;fill-opacity:1;stroke-width:0.264583"
       id="path26"
       d="m 73.727219,157.95389 c -0.09345,-2.74311 -0.06764,-5.48851 -0.04932,-8.23262 0.01341,-1.41787 0.0075,-0.7319 0.01802,-2.0579 0,0 -3.45826,-1.76208 -3.45826,-1.76208 v 0 c 0.01056,1.33731 0.0046,0.64523 0.01802,2.07626 0.0181,2.72735 0.04517,5.45606 -0.04932,8.18237 z" />
    <circle
       id="path27"
       style="fill:#ffffff;stroke:#000000;stroke-width:0.264583"
       cx="71.966789"
       cy="143.93358"
       r="0.048659422" />
    <circle
       id="path28"
       style="fill:#ffffff;stroke:#000000;stroke-width:0.264583"
       cx="71.966789"
       cy="143.93358"
       r="0.048659422" />
    <path
       style="fill:#ffffff;fill-opacity:1;stroke-width:0.264583"
       id="path29"
       d="m 70.174193,145.28395 c -0.161097,1.88429 -0.183367,3.77575 -0.28988,5.66283 -0.221353,2.55348 -0.556617,5.09437 -0.934768,7.62868 -0.227385,1.45973 -0.435043,2.92281 -0.536027,4.39721 -0.04994,1.02931 -0.03506,2.06016 -0.02833,3.09022 -0.01775,1.33686 0.07224,2.67612 -0.06402,4.00754 -0.2291,1.6519 -0.792684,3.22796 -1.191207,4.84122 -0.40798,1.83682 -0.480828,3.72032 -0.530918,5.59406 -0.03568,1.62638 -0.03957,3.25316 -0.0325,4.87984 -0.01852,2.23988 0.05785,4.47592 0.238043,6.70834 0.25572,1.78488 0.434925,3.64612 1.108668,5.3349 1.59747,1.57689 4.236821,3.3022 6.286259,1.7857 0.945595,-0.6997 1.186119,-1.27054 1.83414,-2.25395 1.961419,-3.75534 1.973701,-7.97251 1.781405,-12.0961 -0.393624,-4.6892 -0.665139,-9.38336 -0.794282,-14.08705 -0.03026,-3.48262 -0.0885,-6.96584 -0.67859,-10.4045 -0.358317,-2.01312 -1.014802,-3.95863 -1.582039,-5.91993 -0.271497,-1.04952 -0.149723,-0.5304 -0.367554,-1.55683 0,0 -3.513709,-1.70048 -3.513709,-1.70048 v 0 c 0.214402,1.05134 0.0926,0.52056 0.367829,1.59177 0.582485,1.95374 1.231289,3.89712 1.628833,5.89841 0.684051,3.43559 0.803818,6.92947 0.852562,10.42565 0.138485,4.69963 0.31887,9.39582 0.761267,14.07871 0.203851,4.04046 0.214588,8.17232 -1.743295,11.84158 -0.625409,0.90511 -0.850627,1.44423 -1.776645,2.03865 -0.267285,0.17157 -0.576715,0.27803 -0.88583,0.35102 -0.250264,0.0591 -0.956181,-0.13773 -0.770398,0.0401 1.41596,1.35508 3.937973,2.27207 2.179016,1.60219 -0.809176,-1.56535 -0.961187,-3.54294 -1.252591,-5.25451 -0.181279,-2.21424 -0.247351,-4.43033 -0.193767,-6.6518 -1.59e-4,-1.6267 -0.01807,-3.25353 0.0079,-4.88011 0.04657,-1.84673 0.107061,-3.70404 0.49957,-5.51643 0.395766,-1.62902 0.979204,-3.21251 1.229622,-4.87488 0.178895,-1.33932 0.07574,-2.69285 0.09935,-4.04195 0.0034,-1.0208 -2.65e-4,-2.04199 0.03212,-3.06237 0.06711,-1.47684 0.231426,-2.94615 0.439389,-4.40956 0.35688,-2.54582 0.707048,-5.09295 0.959665,-7.65171 0.122176,-1.86977 0.134836,-3.74761 0.358547,-5.61007 z" />
    <path
       style="fill:#ffffff;fill-opacity:1;stroke-width:0.264583"
       id="path30"
       d="m 76.521415,178.40731 c -0.295611,-0.45876 -0.578901,-0.87622 -0.819589,-1.37586 -1.74761,-3.62782 -2.823787,-7.54789 -3.889568,-11.41245 -1.149525,-4.52547 -1.862704,-9.13799 -2.358261,-13.77467 0,0 -3.267744,-1.61833 -3.267744,-1.61833 v 0 c 0.569616,4.66679 1.344033,9.30682 2.452079,13.87941 0.989311,3.77919 0.86769,3.54694 2.022906,7.10925 0.611767,1.88649 1.177354,3.89017 2.24636,5.58175 z" />
    <path
       style="fill:#ffffff;fill-opacity:1;stroke-width:0.264583"
       id="path31"
       d="m 78.847901,174.10271 c -4.343423,-6.2323 -6.806829,-13.46312 -9.235294,-20.59022 -0.494382,-1.58746 -0.988761,-3.17492 -1.48314,-4.76237 0,0 -3.060039,-1.44322 -3.060039,-1.44322 v 0 c 0.50967,1.59734 1.019342,3.19468 1.529011,4.79202 1.644664,4.86581 3.240368,9.78642 5.385086,14.46368 0.944936,2.06074 2.137563,4.01914 3.274999,5.97714 z" />
    <path
       style="fill:#ffffff;fill-opacity:1;stroke-width:0.264583"
       id="path32"
       d="m 70.439396,148.82105 c -0.06056,-1.96882 -0.05371,-3.93901 -0.0499,-5.90852 0,0 -3.421051,-1.74311 -3.421051,-1.74311 v 0 c 0.0038,1.95255 0.0113,3.90582 -0.0499,5.85766 z" />
    <path
       style="fill:#ff0000;fill-opacity:1;stroke-width:0.264583"
       id="path33"
       d="m 69.703976,156.03748 c -0.123026,-2.45218 0.04057,-4.89212 0.405907,-7.31592 0.297929,-1.89152 0.138314,-0.96043 0.47687,-2.79361 0,0 -3.380153,-1.79989 -3.380153,-1.79989 v 0 c -0.333177,1.84576 -0.17399,0.91055 -0.476239,2.80586 -0.382543,2.42385 -0.553805,4.8594 -0.537658,7.31448 z" />
    <path
       style="fill:#ff0000;fill-opacity:1;stroke-width:0.264583"
       id="path34"
       d="m 69.378096,152.17556 c 0.08749,-1.56372 0.39406,-3.1004 0.684906,-4.63545 0.226134,-1.11055 0.313992,-2.24006 0.357076,-3.37029 -0.0132,-0.58759 0.08813,-1.16722 0.176332,-1.74553 0,0 -3.491391,-1.84521 -3.491391,-1.84521 v 0 c -0.08827,0.59358 -0.206913,1.18845 -0.187759,1.79134 -0.03126,1.11603 -0.102209,2.23216 -0.305449,3.33207 -0.270031,1.54054 -0.569481,3.07662 -0.736459,4.63311 z" />
    <path
       style="fill:#ff0000;fill-opacity:1;stroke-width:0.264583"
       id="path35"
       d="m 77.823281,153.95484 c -0.0451,-1.51839 -0.0232,-3.03769 -0.01876,-4.55647 -0.0681,-1.08034 0.104963,-2.14234 0.220419,-3.21129 0.05977,-0.96295 0.161073,-1.91683 0.304348,-2.87063 0,0 -3.485883,-1.84113 -3.485883,-1.84113 v 0 c -0.13984,0.9601 -0.269169,1.91548 -0.307356,2.88637 -0.117949,1.08469 -0.299866,2.16304 -0.219678,3.25938 0.0044,1.5124 0.02661,3.02536 -0.01876,4.53736 z" />
    <path
       style="fill:#ff0000;fill-opacity:1;stroke-width:0.264583"
       id="path36"
       d="m 85.190278,153.67086 c -0.02864,-1.37079 -0.02061,-2.74198 -0.01267,-4.11293 -0.0024,-1.20199 -0.02355,-2.39834 0.0961,-3.59547 0.03761,-0.89775 0.298027,-1.75437 0.461333,-2.63124 0,0 -3.486922,-1.85601 -3.486922,-1.85601 v 0 c -0.156242,0.89097 -0.428207,1.75848 -0.454094,2.67025 -0.121478,1.20847 -0.138253,2.41713 -0.111932,3.63142 0.0079,1.36665 0.01617,2.73354 -0.01267,4.10001 z" />
    <path
       style="fill:#ff0000;fill-opacity:1;stroke-width:0.264583"
       id="path37"
       d="m 92.332701,151.98262 c -0.0741,-1.4444 0.07247,-2.88363 0.197067,-4.32058 0.176024,-1.18308 0.317957,-2.37092 0.540911,-3.54632 0.184695,-0.59675 0.356664,-1.1945 0.486439,-1.80553 0,0 -3.47464,-1.86105 -3.47464,-1.86105 v 0 c -0.124966,0.61557 -0.295545,1.21698 -0.481428,1.817 -0.220388,1.19111 -0.368459,2.39188 -0.546177,3.59007 -0.107061,1.44274 -0.257178,2.88411 -0.243033,4.33245 z" />
    <path
       style="fill:#ff0000;fill-opacity:1;stroke-width:0.264583"
       id="path38"
       d="m 100.47451,151.25443 c -0.38792,-1.24495 -0.504917,-2.54927 -0.599387,-3.84318 -0.0334,-1.45868 0.184777,-2.91205 0.451527,-4.34241 0,0 -3.452509,-1.84041 -3.452509,-1.84041 v 0 c -0.274447,1.46042 -0.493263,2.94238 -0.500068,4.43091 0.09502,1.30667 0.198702,2.62216 0.522668,3.89582 z" />
    <path
       style="fill:#ff0000;fill-opacity:1;stroke-width:0.264583"
       id="path39"
       d="m 108.06374,151.43625 c -0.19668,-1.79173 -0.2597,-3.59462 -0.30409,-5.39547 -0.0232,-1.05628 -0.0249,-2.11283 -0.0236,-3.1693 0.0117,-0.10606 0.0234,-0.21212 0.0352,-0.31818 0,0 -3.50313,-1.84109 -3.50313,-1.84109 v 0 c -0.0173,0.12227 -0.0346,0.24454 -0.0519,0.36681 0.006,1.06761 0.0235,2.13515 0.0635,3.20209 0.0664,1.80021 0.14365,3.60012 0.25695,5.39807 z" />
    <text
       xml:space="preserve"
       style="font-size:3.175px;white-space:pre;inline-size:32.6197;fill:#000000;fill-opacity:1;stroke-width:0.264583"
       x="25.4"
       y="140.49376"
       id="text41"><tspan
         x="25.4"
         y="140.49376"
         id="tspan1">Heating Pad on </tspan><tspan
         x="25.4"
         y="144.46251"
         id="tspan2">bottom to warm </tspan><tspan
         x="25.4"
         y="148.43126"
         id="tspan3">drink</tspan></text>
    <path
       style="fill:#000000;fill-opacity:1;stroke-width:0.264583"
       id="path45"
       d="m 58.035404,144.11494 c 0.06566,1.75809 0.05318,3.51818 0.05397,5.27722 -0.05709,1.92577 0.341842,3.80509 0.664626,5.69127 0.191119,1.09471 0.297214,2.20142 0.339539,3.3112 0.03052,0.88166 0.02148,1.76383 0.01257,2.64575 -0.0016,0.73651 -0.0068,1.47304 -0.0056,2.20955 -0.0586,0.76954 0.160684,1.46255 0.52869,2.12716 0,0 3.605673,1.58657 3.605673,1.58657 v 0 c -0.417123,-0.56837 -0.671938,-1.20998 -0.626099,-1.92576 0.0026,-0.73654 -5e-5,-1.4731 0.0036,-2.20964 -0.0035,-0.88864 -0.0024,-1.77741 -0.01646,-2.66591 -0.04369,-1.13704 -0.162029,-2.26701 -0.368766,-3.38709 -0.357809,-1.86594 -0.771814,-3.73188 -0.724884,-5.64413 7.93e-4,-1.74069 -0.01244,-3.48252 0.05397,-5.22223 z" />
    <path
       style="fill:#000000;fill-opacity:1;stroke-width:0.264583"
       id="path46"
       d="m 62.766913,167.0535 c 1.576472,-0.0283 3.153468,-0.0285 4.730189,-0.0354 2.19909,-0.008 4.398184,-0.006 6.597274,-0.001 1.938645,0.0203 3.880972,-0.0551 5.81759,0.0528 1.949513,0.0467 3.864231,0.43362 5.789374,0.70709 2.485358,0.31041 4.946917,0.7753 7.423758,1.148 2.083221,0.37286 4.17145,0.73295 6.280113,0.92528 1.642789,0.11583 3.292049,0.0917 4.937949,0.0943 1.74419,-0.003 3.4884,-0.004 5.23259,-0.005 1.27573,0.0554 2.54086,-0.0216 3.811,-0.12153 1.55963,-0.11018 3.12375,-0.12956 4.68655,-0.14915 1.77931,-0.0158 3.55869,-0.004 5.33794,0.0133 0.49073,-0.0346 0.99156,0.0518 1.48179,0.009 0.52724,-0.0458 1.06352,-0.18128 1.58527,-0.26999 1.69065,-0.25595 3.40938,-0.25159 5.11543,-0.27623 1.57182,-0.0151 3.14374,-0.005 4.71552,0.0108 1.44658,0.002 2.89311,-0.0153 4.33969,-0.0187 1.39141,0.008 2.78282,0.0138 4.17422,0.0211 1.14693,0.0307 2.28743,-0.10987 3.43165,-0.17486 0.76738,-0.0427 1.5357,-0.0613 2.30406,-0.0743 0,0 -3.17399,-2.29364 -3.17399,-2.29364 v 0 c -0.76312,0.0263 -1.52624,0.0551 -2.28843,0.10191 -1.14372,0.0717 -2.28787,0.16349 -3.43476,0.14392 -1.37242,0.007 -2.74485,0.0132 -4.11728,0.0201 -1.46641,-0.004 -2.93273,-0.0227 -4.39914,-0.0246 -1.54622,0.0136 -3.09242,0.0292 -4.63853,0.0526 -1.74311,0.0275 -3.5038,-0.008 -5.22968,0.26735 -1.00206,0.16981 -1.99913,0.26278 -3.01747,0.2155 -1.75927,0.0167 -3.51857,0.0295 -5.27791,0.0341 -1.59004,0.005 -3.18186,-0.003 -4.76823,0.12297 -1.25206,0.0934 -2.50322,0.15016 -3.75966,0.12255 -1.74131,0.004 -3.48263,0.0114 -5.22395,0.009 -1.644696,-0.003 -3.292045,-0.003 -4.932634,-0.13389 -2.078172,-0.19549 -4.139591,-0.52101 -6.193668,-0.88979 -2.475886,-0.39123 -4.944118,-0.83396 -7.430939,-1.15045 -1.95362,-0.30033 -3.90057,-0.69166 -5.883661,-0.72705 -1.928053,-0.055 -3.858369,0.0239 -5.787046,-0.0105 -2.199952,0.005 -4.399907,0.007 -6.599857,-0.001 -1.609209,-0.007 -3.218669,-0.008 -4.827643,-0.0354 z" />
    <path
       style="fill:#000000;fill-opacity:1;stroke-width:0.264583"
       id="path47"
       d="m 152.01525,167.74706 c -0.26505,-2.8992 -0.40254,-5.81041 -0.45149,-8.72099 -0.13106,-3.29563 0.21126,-6.56881 0.5796,-9.83685 0.26769,-2.39714 0.501,-4.79672 0.71568,-7.19903 0.26259,-2.63254 0.64587,-5.25029 0.99324,-7.87224 0.31984,-2.79896 0.43367,-5.6161 0.64814,-8.42442 0.17196,-2.29374 0.55245,-4.56594 0.77209,-6.85431 0.1246,-1.29815 0.21708,-2.97217 0.29746,-4.26763 0.13634,-2.57002 0.26943,-5.14946 0.12376,-7.7223 -0.0781,-1.38008 -0.14171,-1.77339 -0.2949,-3.10235 -0.2273,-1.80658 -0.62752,-3.58305 -0.85121,-5.39014 -0.33095,-1.717845 -0.55581,-3.451945 -0.7289,-5.192088 -0.15491,-1.66306 -0.19744,-3.333467 -0.20736,-5.0028 -0.008,-1.039339 -0.2242,-2.056596 -0.36233,-3.082115 -0.0656,-0.732793 -0.13921,-1.460315 -0.2577,-2.186469 -0.26501,-1.211596 -0.33908,-2.449124 -0.39285,-3.68462 -0.0399,-1.006784 -0.0391,-2.014484 -0.0337,-3.021846 0.0167,-0.615775 -0.0223,-1.233199 0.0277,-1.847508 0.16863,-0.603793 0.32329,-1.207122 0.41726,-1.827895 0,0 -3.49164,-1.840736 -3.49164,-1.840736 v 0 c -0.0806,0.628044 -0.22732,1.23734 -0.42438,1.839177 -0.0798,0.625917 -0.0303,1.25993 -0.0394,1.889869 0.0125,1.021749 0.0399,2.043231 0.0812,3.064237 0.0585,1.232421 0.0788,2.478138 0.32114,3.691327 0.091,0.731414 0.23681,1.45356 0.27719,2.192165 0.13672,1.018286 0.35545,2.023663 0.40417,3.052014 0.0466,1.688147 0.11383,3.376424 0.25144,5.059926 0.16757,1.731774 0.33228,3.470262 0.67698,5.177245 0.22689,1.834337 0.67468,3.626017 0.96725,5.449537 0.50972,3.58546 0.56216,7.20394 0.31344,10.81676 -0.2525,3.70503 -0.72418,7.38058 -1.16901,11.06613 -0.20808,2.79771 -0.37891,5.59959 -0.66895,8.38987 -0.34442,2.62713 -0.72336,5.25012 -0.9992,7.88585 -0.22739,2.40004 -0.50107,4.7944 -0.71559,7.19534 -0.29444,3.29946 -0.6455,6.59911 -0.51653,9.91746 0.0328,2.87879 0.18259,5.75363 0.2103,8.63237 z" />
    <path
       style="fill:#000000;fill-opacity:1;stroke-width:0.264583"
       id="path48"
       d="m 148.81133,69.224159 c -2.44762,0.07259 -4.89702,0.0545 -7.34533,0.03491 -1.69221,-0.02439 -3.38445,-0.01582 -5.07672,-0.009 -1.88843,0.0024 -3.77686,0.0032 -5.66528,-0.0019 -1.33563,-0.0053 -2.67124,-0.01344 -4.00688,-0.01773 -1.19359,-5.29e-4 -2.3872,0.0013 -3.58078,0.0095 -1.37733,0.009 -2.75466,-0.0078 -4.13199,-0.0055 -0.80882,-1.3e-5 -0.41096,7.94e-4 -1.19357,-0.0021 0,0 3.15707,2.293747 3.15707,2.293747 v 0 c 0.7768,-0.0029 0.38089,-0.0021 1.18774,-0.0021 1.37226,0.0024 2.74452,-0.01455 4.11679,-0.0055 1.20229,0.0082 2.40461,0.01 3.60692,0.0095 1.31936,-0.0043 2.63868,-0.01238 3.95804,-0.01773 1.88667,-0.0051 3.77337,-0.0043 5.66005,-0.0019 1.68402,0.0067 3.36802,0.01569 5.05198,-0.009 2.48036,-0.02029 4.9617,-0.03562 7.44143,0.03491 z" />
    <path
       style="fill:#000000;fill-opacity:1;stroke-width:0.264583"
       id="path49"
       d="m 115.93657,69.956137 c -0.26893,1.585576 -0.49565,3.178259 -0.74541,4.767225 -0.26777,1.7893 -0.41745,3.593206 -0.46766,5.401027 0.15612,2.599788 0.46835,5.190006 0.80553,7.772228 0.25483,1.652392 0.3977,3.314784 0.46369,4.984295 -0.0104,2.072486 -0.10724,4.143655 -0.16355,6.215374 -0.0506,2.213184 -0.0349,4.427144 -0.0561,6.640664 -0.004,1.81414 -0.0181,3.62825 -0.0199,5.44238 0.0136,1.75014 0.0104,3.50018 2.5e-4,5.25035 0.004,1.72403 0.005,3.44807 0.008,5.1721 2.1e-4,1.50489 -0.0131,3.00972 -0.0201,4.51459 -0.0124,1.08102 -0.0102,2.16209 -0.004,3.24314 0.01,1.21871 0.003,2.43733 -0.003,3.65605 -0.005,0.94207 -0.006,1.88417 -0.007,2.82626 0.005,1.13584 0.0177,2.27153 0.011,3.40738 -0.002,0.17498 -0.003,0.34996 -0.005,0.52494 0,0 3.48413,1.77526 3.48413,1.77526 v 0 c -0.002,-0.17657 -0.003,-0.35313 -0.005,-0.5297 -0.007,-1.1321 0.005,-2.26404 0.011,-3.39612 -0.001,-0.94462 -0.002,-1.88924 -0.007,-2.83383 -0.006,-1.21981 -0.013,-2.4395 -0.003,-3.6593 0.006,-1.08234 0.008,-2.1647 -0.004,-3.24701 -0.007,-1.51171 -0.0203,-3.02337 -0.0201,-4.53509 0.003,-1.72148 0.003,-3.44296 0.007,-5.16444 -0.0103,-1.7504 -0.0139,-3.50067 -10e-4,-5.25105 -0.003,-1.82035 -0.019,-3.64069 -0.0188,-5.46106 -0.0123,-2.21095 0.009,-4.42191 0.0532,-6.63244 0.0454,-2.07361 0.13752,-4.145263 0.20725,-6.218061 -0.046,-1.695231 -0.17331,-3.383418 -0.50381,-5.05046 -0.39172,-2.54663 -0.68406,-5.1079 -0.77746,-7.684643 0.0592,-1.795827 0.14189,-3.593404 0.4195,-5.371517 0.24723,-1.563825 0.48399,-3.134167 0.84103,-4.676939 z" />
    <path
       style="fill:#000000;fill-opacity:1;stroke-width:0.264583"
       id="path50"
       d="m 62.425005,146.33226 c 0.434623,-0.81389 1.113555,-1.41383 1.780797,-2.03005 0.546404,-0.40409 1.028983,-0.86935 1.441865,-1.40795 0.171757,-0.2927 0.08885,-0.14709 0.248989,-0.43665 0,0 -3.431582,-1.97413 -3.431582,-1.97413 v 0 c -0.150316,0.26806 -0.07714,0.13878 -0.219321,0.38795 -0.396251,0.52125 -0.863979,0.9624 -1.37441,1.37217 -0.680765,0.64553 -1.369216,1.27892 -1.863993,2.08602 z" />
    <path
       style="fill:#000000;fill-opacity:1;stroke-width:0.264583"
       id="path51"
       d="m 63.005432,147.06835 c 0.733116,-1.07957 1.506937,-2.12541 2.118831,-3.28032 0.386419,-0.79844 0.575747,-1.65739 0.655783,-2.5348 0.0055,-0.10236 0.01106,-0.20472 0.01659,-0.30708 0,0 -3.511169,-1.80642 -3.511169,-1.80642 v 0 c -0.0024,0.0989 -0.0048,0.19789 -0.0071,0.29683 -0.04574,0.83298 -0.185121,1.65423 -0.538914,2.41811 -0.578657,1.14833 -1.330431,2.19297 -2.127565,3.19976 z" />
    <path
       style="fill:#000000;fill-opacity:1;stroke-width:0.264583"
       id="path52"
       d="m 59.532969,145.36083 c 0.514911,-0.009 0.248216,-0.006 0.800092,-0.009 0,0 -3.176749,-2.30805 -3.176749,-2.30805 v 0 c -0.564621,-0.003 -0.289766,-1.2e-4 -0.824568,-0.009 z" />
    <path
       style="fill:#000000;fill-opacity:1;stroke-width:0.264583"
       id="path53"
       d="m 144.10866,105.15543 c -0.0198,-1.57165 -0.0639,-3.14063 -0.13978,-4.71076 -0.13454,-2.74277 -0.12619,-5.487509 -0.32182,-8.226971 -0.18381,-1.50291 -0.20706,-3.008709 -0.16479,-4.519086 0.0377,-0.526759 0.006,-1.053811 -0.0228,-1.579843 0,0 -3.49616,-1.754883 -3.49616,-1.754883 v 0 c 0.0341,0.516324 0.0818,1.034008 0.042,1.551765 -0.0369,1.541196 0.032,3.077348 0.24297,4.606288 0.0908,0.928833 0.16823,1.600782 0.2084,2.545754 0.0802,1.885757 0.0269,3.776705 0.11539,5.662496 0.0428,1.54275 0.0748,3.08604 0.0109,4.62883 z" />
    <path
       style="fill:#000000;fill-opacity:1;stroke-width:0.264583"
       id="path54"
       d="m 146.9202,109.97396 c 1.0736,-0.51409 2.02227,-1.23612 2.97786,-1.93661 0.69401,-0.59051 1.34629,-1.23188 2.00913,-1.85806 0.30337,-0.24979 0.14788,-0.11889 0.46587,-0.39343 0,0 -3.34639,-2.08791 -3.34639,-2.08791 v 0 c -0.32964,0.27636 -0.17081,0.13821 -0.47712,0.41373 -0.63948,0.62092 -1.25437,1.27112 -1.93944,1.84163 -0.93957,0.69252 -1.88699,1.39604 -2.9773,1.83621 z" />
    <path
       style="fill:#000000;fill-opacity:1;stroke-width:0.264583"
       id="path55"
       d="m 143.22884,112.86123 c 0.0903,1.68322 0.67204,3.27655 1.18888,4.86397 0.53192,1.63713 1.27252,3.1933 1.92654,4.78345 0.23773,0.59204 0.44638,1.19458 0.6488,1.79933 0,0 3.52875,1.65644 3.52875,1.65644 v 0 c -0.20647,-0.61453 -0.42249,-1.22542 -0.65043,-1.83239 -0.37125,-0.85985 -0.18975,-0.41851 -0.54271,-1.32478 -0.48547,-1.15449 -1.12925,-2.24299 -1.46492,-3.45934 -0.48688,-1.52959 -1.06531,-3.06735 -1.10926,-4.69027 z" />
    <path
       style="fill:#000000;fill-opacity:1;stroke-width:0.264583"
       id="path56"
       d="m 137.14342,111.8029 c 0.10073,2.42374 0.0996,4.84929 0.0301,7.27371 0.004,1.5011 -0.17124,2.9816 -0.5285,4.43627 0,0 3.39602,1.82859 3.39602,1.82859 v 0 c 0.32576,-1.50149 0.47875,-3.02519 0.44732,-4.56456 0.0609,-2.39256 0.11592,-4.78537 0.18074,-7.1776 z" />
    <path
       style="fill:#000000;fill-opacity:1;stroke-width:0.264583"
       id="path57"
       d="m 139.01099,108.76907 c -0.48948,-1.2054 -1.06606,-2.36925 -1.70904,-3.49919 -0.60608,-1.24352 -1.2527,-2.464 -1.90689,-3.68255 -0.3908,-0.69741 -0.79684,-1.38572 -1.23457,-2.054592 0,0 -3.57603,-1.560037 -3.57603,-1.560037 v 0 c 0.46127,0.648161 0.85177,1.338721 1.26,2.02133 0.66017,1.220269 1.34535,2.425649 1.90916,3.695649 0.63887,1.09521 1.22761,2.21463 1.68299,3.40073 z" />
    <rect
       style="fill:#0000ff;fill-opacity:1;stroke-width:0.264583"
       id="rect57"
       width="8.9958334"
       height="41.804165"
       x="118.26875"
       y="87.57708" />
    <path
       style="fill:#000000;fill-opacity:1;stroke-width:0.264583"
       id="path58"
       sodipodi:type="arc"
       sodipodi:cx="142.21353"
       sodipodi:cy="108.61146"
       sodipodi:rx="6.2177086"
       sodipodi:ry="5.4239583"
       sodipodi:start="0"
       sodipodi:end="5.9712905"
       sodipodi:arc-type="arc"
       d="m 148.43124,108.61146 a 6.2177086,5.4239583 0 0 1 -5.73338,5.40748 6.2177086,5.4239583 0 0 1 -6.62658,-4.56505 6.2177086,5.4239583 0 0 1 4.70103,-6.11867 6.2177086,5.4239583 0 0 1 7.35895,3.61183"
       sodipodi:open="true" />
    <path
       style="fill:#0000ff;fill-opacity:1;stroke-width:0.264583"
       id="path59"
       d="m 125.31845,87.891775 c -0.0648,-0.985935 -0.0212,-1.950561 0.2362,-2.905408 0.27745,-0.642678 0.72177,-1.207826 1.33632,-1.548667 0.76445,-0.322556 1.5029,-0.69881 2.2737,-1.006769 1.78351,-0.620543 3.65424,-0.833948 5.52143,-1.033097 2.41525,-0.119753 4.85904,-0.484418 7.27578,-0.220007 1.29761,0.470914 3.64199,1.787938 -2.1071,-1.302943 -0.10768,-0.05789 0.19546,0.147553 0.28537,0.230397 0.21226,0.195585 0.2361,0.255836 0.39491,0.485336 0.30789,0.553002 0.31463,1.194419 0.33127,1.81084 0.009,0.362275 0.005,0.724654 0.002,1.086958 0,0 3.5091,1.790716 3.5091,1.790716 v 0 c 0.002,-0.365067 0.003,-0.730131 0.005,-1.095198 -0.008,-0.667901 -0.001,-1.356929 -0.2407,-1.990397 -0.14725,-0.295486 -0.33414,-0.696002 -0.62891,-0.878292 -1.59295,-0.985112 -2.89398,-2.124617 -4.67191,-2.443107 -2.40147,-0.113702 -4.80098,0.2441 -7.19618,0.360995 -1.93698,0.177538 -3.88832,0.351936 -5.73161,1.018119 -0.79352,0.314714 -1.56046,0.690301 -2.33519,1.04792 -0.66329,0.445505 -1.15587,1.077674 -1.4684,1.814414 -0.27023,0.98329 -0.33683,1.968924 -0.30636,2.986665 z" />
    <path
       style="fill:#0000ff;fill-opacity:1;stroke-width:0.264583"
       id="path60"
       d="m 139.78926,130.8529 c 0.0272,0.93068 0.0118,1.8618 0.0212,2.7927 0.056,1.34787 -0.14115,1.98284 -0.92776,3.06581 -0.86868,1.04847 -2.07247,1.72885 -3.27182,2.33456 -0.88318,0.38102 -1.80408,0.62441 -2.75708,0.73578 -1.92712,0.14072 -3.86205,0.12879 -5.79319,0.12668 -1.11615,-0.0919 -2.27883,0.14739 -3.37796,-0.13423 -0.374,-0.0958 -1.01567,-0.38159 -1.37364,-0.53267 -1.93775,-1.07752 1.51347,0.8851 2.28625,1.29853 0.16061,0.0859 -0.29948,-0.20783 -0.44242,-0.32072 -0.33638,-0.26565 -0.59758,-0.55555 -0.84652,-0.90046 -0.349,-0.56077 -0.37116,-1.21729 -0.38937,-1.85783 -0.008,-0.81418 -0.002,-1.62848 0.005,-2.44267 0.001,-0.75909 0.0139,-1.51812 0.0129,-2.27722 0.0455,-0.72476 0.10888,-1.4497 0.27453,-2.15757 0.0215,-0.0916 0.0431,-0.18328 0.0646,-0.27492 0,0 -3.48021,-1.8725 -3.48021,-1.8725 v 0 c -0.0202,0.0919 -0.0405,0.18375 -0.0607,0.27562 -0.16815,0.73762 -0.22607,1.48863 -0.30978,2.2398 -0.002,0.76054 0.008,1.52109 5.3e-4,2.28163 -0.003,0.81525 -0.0178,1.63032 -0.0222,2.44555 0.008,0.6943 0.006,1.4118 0.3007,2.05583 0.3099,0.53924 0.71861,1.05941 1.26027,1.38907 3.3691,2.05043 2.58334,1.65921 4.39527,2.51399 0.51269,0.19086 0.88198,0.35275 1.42792,0.45222 1.10543,0.20142 2.24834,-0.003 3.36122,0.0598 1.96649,-0.0117 3.93861,0.0281 5.90088,-0.10996 0.98211,-0.14064 1.92996,-0.41917 2.82356,-0.85765 1.22875,-0.66953 2.4566,-1.39454 3.35863,-2.48858 0.79162,-1.06575 1.14118,-1.92449 1.06372,-3.27304 0.009,-0.9237 -0.006,-1.84763 0.0212,-2.7711 z" />
    <text
       xml:space="preserve"
       style="font-size:3.175px;white-space:pre;inline-size:23.3123;fill:#000000;fill-opacity:1;stroke-width:0.264583"
       x="156.36874"
       y="79.904167"
       id="text60"><tspan
         x="156.36874"
         y="79.904167"
         id="tspan4">Fan plus </tspan><tspan
         x="156.36874"
         y="83.872914"
         id="tspan5">coolant to </tspan><tspan
         x="156.36874"
         y="87.841664"
         id="tspan6">cool down the </tspan><tspan
         x="156.36874"
         y="91.810414"
         id="tspan7">drink</tspan></text>
    <path
       style="fill:#000000;fill-opacity:1;stroke-width:0.264583"
       d="m 118.79792,68.527082 c -2.53201,-3.138736 -4.55583,-6.622907 -6.61459,-10.054166 -0.55073,-0.917887 -0.96399,-1.814494 -1.5875,-2.645833 -0.55658,-0.742112 -0.45827,-1.807144 -0.79375,-2.645834 0.47912,-1.106953 -0.41761,-0.306051 -0.52916,-0.529166 -0.0789,-0.157766 0,-0.352777 0,-0.529167 -0.0882,-0.17639 -0.1552,-0.36508 -0.26459,-0.529167 -0.13837,-0.207555 -0.41761,-0.306051 -0.52916,-0.529166 -0.45213,-0.904256 -1.18962,-3.835448 -1.5875,-4.233334 -1.15172,-1.151712 -3.16257,-1.7556 -4.49792,-2.645833 -0.20756,-0.138372 -0.32161,-0.390795 -0.52917,-0.529167 -0.63365,-0.422433 -1.62366,-0.755295 -2.381248,-1.058333 -0.912,-0.364799 -1.742882,-0.935937 -2.645833,-1.322917 -0.891818,-0.382209 -0.845108,-0.193508 -1.852084,-0.529166 -0.775853,-0.258617 -1.003702,-0.846238 -1.852083,-1.058333 -0.664051,-0.166013 -1.452615,0.166012 -2.116666,0 -1.7095,-0.427377 -1.977774,-0.529167 -3.704167,-0.529167 -0.989748,0 -5.768814,-0.281924 -6.614583,0 -0.507707,0.169235 -0.882873,0.573728 -1.322917,0.79375 -0.160353,0.08018 -0.682879,0.153712 -0.79375,0.264583 -0.886754,0.886754 2.238902,3.378621 2.645833,3.704167 0.344342,0.275473 0.74652,0.481936 1.058334,0.79375 0.139448,0.139448 0.100496,0.419774 0.264583,0.529166 0.146764,0.09784 0.358045,-0.04278 0.529167,0 0.19132,0.04783 0.342077,0.202221 0.529166,0.264584 0.849786,0.283263 2.024822,-0.147598 2.910417,0 0.539932,0.08999 1.073018,0.44342 1.5875,0.529166 0.521967,0.087 1.213323,-0.374176 1.5875,0 0.139449,0.139449 0.106817,0.410843 0.264583,0.529167 0.697595,0.523195 0.681503,0.1363 1.322917,0.264583 0.762389,0.152477 1.390097,0.612109 2.116666,0.79375 0.781524,0.195382 1.764509,0.235392 2.645834,0.529167 2.004936,0.668311 -0.09554,-0.09554 0.529166,0.529167 0.19721,0.19721 0.570635,0.09725 0.79375,0.264583 0.635112,0.476332 1.562651,1.033484 2.116667,1.5875 0.100497,0.100497 1.313168,1.582629 1.322918,1.5875 0.32524,0.162624 0.8012,0.0075 1.05833,0.264583 0.32361,0.323612 0.39195,0.756979 0.79375,1.058334 0.41141,0.308554 0.95928,0.430114 1.32292,0.79375 0.2554,0.255397 0.99925,1.42567 1.32292,1.5875 0.46837,0.234185 0.0904,-0.393552 0.52916,0.264583 0.29508,0.442619 1.14234,1.490935 1.32292,1.852083 0.24526,0.49053 0.50295,1.151308 0.79375,1.5875 0.38307,0.574604 1.27787,0.968248 1.5875,1.5875 0.34527,0.690549 0.62791,1.206453 1.05833,1.852084 0.17639,0.264583 0.61736,0.264583 0.79375,0.529166 0.14677,0.220147 -0.18709,0.606661 0,0.79375 0.16255,0.162552 0.61657,0.174797 0.79375,0.529167 0.12134,0.242673 1.87328,2.483572 2.11667,2.645833 0.0734,0.04892 0.20222,-0.06236 0.26458,0 0.0624,0.06236 -0.0624,0.202221 0,0.264583 0.16255,0.162553 0.61657,0.174797 0.79375,0.529167 0.0394,0.07888 -0.0624,0.202221 0,0.264583 0.0882,0.08819 0.70556,0.17639 0.79375,0.264584 0.0624,0.06236 -0.0394,0.1857 0,0.264583 0.0866,0.173255 0.6447,0.983808 0.79375,1.058333 0.0789,0.03944 0.20222,-0.06236 0.26459,0 0.0468,0.04677 0.12426,0.388851 0.26458,0.529167"
       id="path61" />
    <path
       style="fill:#000000;fill-opacity:1;stroke-width:0.264583"
       d="m 97.366665,47.360416 v -0.79375"
       id="path62" />
    <text
       xml:space="preserve"
       style="font-size:3.175px;white-space:pre;inline-size:28.4825;fill:#000000;fill-opacity:1;stroke-width:0.264583"
       x="111.91875"
       y="42.068748"
       id="text62"><tspan
         x="111.91875"
         y="42.068748"
         id="tspan8">Temperature </tspan><tspan
         x="111.91875"
         y="46.037499"
         id="tspan9">probe to keep </tspan><tspan
         x="111.91875"
         y="50.006249"
         id="tspan10">track of drink </tspan><tspan
         x="111.91875"
         y="53.974999"
         id="tspan11">temperature</tspan></text>
    <rect
       style="fill:#000000;fill-opacity:1;stroke-width:0.264583"
       id="rect62"
       width="55.562492"
       height="18.256254"
       x="92.074997"
       y="148.16667"
       ry="0" />
    <text
       xml:space="preserve"
       style="font-size:7.05556px;line-height:3;fill:#008000;fill-opacity:1;stroke-width:0.264583"
       x="92.074997"
       y="154.78125"
       id="text63"><tspan
         sodipodi:role="line"
         id="tspan63"
         style="font-size:7.05556px;stroke-width:0.264583"
         x="92.074997"
         y="154.78125">160 Degrees F</tspan></text>
    <path
       sodipodi:type="star"
       style="fill:#008000;fill-opacity:1;stroke-width:0.264583"
       id="path63"
       inkscape:flatsided="false"
       sodipodi:sides="3"
       sodipodi:cx="95.779167"
       sodipodi:cy="158.75"
       sodipodi:r1="3.3152196"
       sodipodi:r2="1.6576099"
       sodipodi:arg1="0.49934672"
       sodipodi:arg2="1.5465443"
       inkscape:rounded="0"
       inkscape:randomized="0"
       d="m 98.689584,160.3375 -2.87022,0.0696 -2.87022,0.0696 1.374815,-2.52049 1.374815,-2.52049 1.495405,2.45087 z"
       inkscape:transform-center-x="-0.040195295"
       inkscape:transform-center-y="-0.79375199" />
    <path
       sodipodi:type="star"
       style="fill:#008000;fill-opacity:1;stroke-width:0.264583"
       id="path65"
       inkscape:flatsided="false"
       sodipodi:sides="3"
       sodipodi:cx="93.662498"
       sodipodi:cy="161.925"
       sodipodi:r1="3.675709"
       sodipodi:r2="1.8378547"
       sodipodi:arg1="-0.52807445"
       sodipodi:arg2="0.5191231"
       inkscape:rounded="0"
       inkscape:randomized="0"
       d="m 96.837498,160.07292 -1.579274,2.76388 -1.579274,2.76388 -1.603952,-2.74964 -1.603951,-2.74963 3.183226,-0.0142 z"
       inkscape:transform-center-x="0.0082267882"
       inkscape:transform-center-y="0.91179244"
       transform="translate(1.8520833,0.79375)" />
    <text
       xml:space="preserve"
       style="font-size:3.175px;line-height:0;white-space:pre;inline-size:54.7551;fill:#000000;fill-opacity:1;stroke-width:0.264583"
       x="97.102081"
       y="173.56667"
       id="text65"><tspan
         x="97.102081"
         y="173.56667"
         id="tspan13"><tspan
           style="line-height:1"
           id="tspan12">Screen and buttons to show </tspan></tspan><tspan
         x="97.102081"
         y="176.74167"
         id="tspan15"><tspan
           style="line-height:1"
           id="tspan14">temperature and be able to </tspan></tspan><tspan
         x="97.102081"
         y="179.91667"
         id="tspan17"><tspan
           style="line-height:1"
           id="tspan16">change it</tspan></tspan></text>
  </g>
</svg>
